# xmcd CD database file
#
# Track frame offsets:
#	150
#	18372
#	40220
#	59932
#	74817
#	88337
#	104297
#	122382
#	142842
#	158670
#
# Disc length: 2354 seconds
#
# Revision: 0
# Processed by: cddbd v1.4PL0 Copyright (c) Steve Scherf et al.
# Submitted via: Feurio! 1.65 - http://www.feurio.com
#
DISCID=8b09300a
DTITLE=Lonnie Mack - Lonnie Mack And Pismo
DYEAR=1977
DGENRE=CountryRock
TTITLE0=Country
TTITLE1=Mexico
TTITLE2=I Feel A Change
TTITLE3=Dixie's Your Name
TTITLE4=Rock And Roll Like We Used To
TTITLE5=Hug Me Til It Hurts
TTITLE6=Lucy
TTITLE7=Ebony And Ivory
TTITLE8=Adobe Man
TTITLE9=Drift Away Again
EXTD=
EXTT0=
EXTT1=
EXTT2=
EXTT3=
EXTT4=
EXTT5=
EXTT6=
EXTT7=
EXTT8=
EXTT9=
PLAYORDER=
